{"asset":{"copyright":"","generator":"Source 2 Viewer 10.0.0.0 - https://valveresourceformat.github.io","version":"2.0"},"accessors":[{"bufferView":0,"componentType":5126,"count":184,"max":[21.062671661376953,27.293048858642578,125.1736068725586],"min":[-24.356075286865234,-35.111305236816406,68.00389099121094],"type":"VEC3"},{"bufferView":1,"componentType":5126,"count":184,"max":[0.9909054636955261,0.9867854714393616],"min":[0.011078218929469585,0.013183996081352234],"type":"VEC2"},{"bufferView":2,"componentType":5126,"count":184,"max":[0.9413896799087524,0.9960377216339111,0.9974828362464905],"min":[-0.9811468720436096,-0.998073399066925,-0.9997313618659973],"type":"VEC3"},{"bufferView":3,"componentType":5126,"count":184,"max":[0.9977096915245056,0.9867688417434692,0.9826616048812866,-1],"min":[-0.993043065071106,-0.9947522878646851,-0.9974828362464905,-1],"type":"VEC4"},{"bufferView":4,"componentType":5123,"count":184,"type":"VEC4"},{"bufferView":5,"componentType":5126,"count":184,"max":[1,0.3333333432674408,0.3019607961177826,0],"min":[0.3960784375667572,0,0,0],"type":"VEC4"},{"bufferView":6,"componentType":5125,"count":828,"type":"SCALAR"},{"name":"Bind Matrices","bufferView":7,"componentType":5126,"count":11,"max":[1,0.9771170020103455,0.9962362051010132,0,0.9857994914054871,1,0.9999999403953552,0,0.995712161064148,0.5006034970283508,1,0,80.08212280273438,20.651662826538086,127.23165130615234,1],"min":[-0.3022976219654083,-0.9771170616149902,-0.995712161064148,0,-0.6230961084365845,-0.8636133074760437,-1.21611392955856E-07,0,-0.9532135128974915,-0.13064444065093994,-0.9912797808647156,0,-123.21733856201172,-82.9867935180664,-127.23162841796875,1],"type":"MAT4"}],"bufferViews":[{"buffer":0,"byteLength":2208,"byteOffset":9200,"target":34962},{"buffer":0,"byteLength":1472,"byteOffset":13616,"target":34962},{"buffer":0,"byteLength":2208,"byteOffset":11408,"target":34962},{"buffer":0,"byteLength":2944,"byteOffset":3312,"target":34962},{"buffer":0,"byteLength":1472,"byteOffset":15088,"target":34962},{"buffer":0,"byteLength":2944,"byteOffset":6256,"target":34962},{"buffer":0,"byteLength":3312,"target":34963},{"buffer":0,"byteLength":704,"byteOffset":16560}],"buffers":[{"byteLength":17264,"uri":"warlock_bag.bin"}],"images":[{"name":"warlock_bag_color_psd_382211b4.vtex","uri":"warlock_bag_color_psd_382211b4.png"},{"name":"warlock_bag_normal_psd_ca83e4a.vtex","uri":"warlock_bag_normal_psd_ca83e4a.png"},{"name":"warlock_bag_metalnessmask_tga_bc4ed6d5_orm_1237187983.png","uri":"warlock_bag_metalnessmask_tga_bc4ed6d5_orm_1237187983.png"}],"materials":[{"extras":{"baseColorTexture":{"index":0}},"name":"warlock_bag_color","alphaMode":"MASK","emissiveTexture":{"index":2},"normalTexture":{"index":1},"pbrMetallicRoughness":{"baseColorTexture":{"index":0},"metallicRoughnessTexture":{"index":2}}}],"meshes":[{"extras":{},"name":"models/heroes/warlock/warlock_bag.vmdl_c.warlock_bag_model","primitives":[{"attributes":{"POSITION":0,"TEXCOORD_0":1,"NORMAL":2,"TANGENT":3,"JOINTS_0":4,"WEIGHTS_0":5},"indices":6,"material":0}]}],"nodes":[{"name":"models/heroes/warlock/warlock_bag.vmdl_c","children":[1],"matrix":[3.027916E-09,0,0.025399996,0,0.025399996,3.027916E-09,0,0,0,0.025399996,3.027916E-09,0,0,0,0,1]},{"name":"Root_0","children":[2,8,9,10,11],"translation":[-0.8482749,-0,92.016884]},{"name":"Spine_0","children":[3],"rotation":[9.887445E-09,-0.7390892,-9.887445E-09,0.6736076],"translation":[0.048274696,-1.1812773E-13,8.928551]},{"name":"Spine_1","children":[4],"rotation":[1.1355595E-14,-0.017953068,1.5694984E-09,0.9998388],"translation":[8.37339,3.644443E-07,6.67572E-06]},{"name":"Spine_2","children":[5,7],"rotation":[-1.1197156E-15,0.1299368,-1.135944E-08,0.9915223],"translation":[15.62085,6.771759E-07,0]},{"name":"clavicle_R","children":[6],"rotation":[0.5414752,0.45475778,-0.5391945,-0.45745954],"translation":[3.9915848,-4.8630385,-5.2290363]},{"name":"bicep_R","rotation":[-0.6086807,0.45503286,0.2460573,0.6015884],"translation":[-17.130495,-1.1444092E-05,-0.00010681152]},{"name":"clavicle_L","rotation":[0.53919446,0.45745954,0.5414752,0.4547579],"translation":[3.991562,4.863032,-5.229046]},{"name":"Back_flap_R0C0","rotation":[-0.417643,0.5705913,0.57059133,0.4176428],"translation":[-10.391484,-1.7401082E-06,-4.439575]},{"name":"Fr_help6_0","rotation":[-2.1855692E-08,-2.1855692E-08,4.776713E-16,1],"translation":[22.362762,0,-46.37826]},{"name":"Bk_help7_0","rotation":[-2.1855692E-08,-2.1855692E-08,4.776713E-16,1],"translation":[-16.760967,0,-46.37826]},{"name":"Bag_0","rotation":[6.1893104E-08,7.2132877E-09,-0.33004147,0.94396645],"translation":[-7.535048,-19.72531,-1.8585968]},{"name":"models/heroes/warlock/warlock_bag.vmdl_c.warlock_bag_model","mesh":0,"skin":0}],"samplers":[{"magFilter":9729,"minFilter":9987}],"scenes":[{"name":"warlock_bag.vmdl_c","nodes":[0,12]}],"skins":[{"inverseBindMatrices":7,"joints":[1,2,3,4,5,6,7,8,9,10,11]}],"textures":[{"name":"warlock_bag_color_psd_382211b4.vtex","sampler":0,"source":0},{"name":"warlock_bag_normal_psd_ca83e4a.vtex","sampler":0,"source":1},{"name":"warlock_bag_metalnessmask_tga_bc4ed6d5_orm_1237187983.png","sampler":0,"source":2}]}