{"asset":{"copyright":"","generator":"Source 2 Viewer 10.0.0.0 - https://valveresourceformat.github.io","version":"2.0"},"accessors":[{"bufferView":0,"componentType":5126,"count":177,"max":[15.032730102539062,16.522642135620117,155.72488403320312],"min":[-13.425301551818848,-16.816469192504883,130.76258850097656],"type":"VEC3"},{"bufferView":1,"componentType":5126,"count":177,"max":[0.9938352704048157,0.981963574886322],"min":[0.0139469588175416,0.018005920574069023],"type":"VEC2"},{"bufferView":2,"componentType":5126,"count":177,"max":[0.9918366074562073,0.9960377216339111,0.9997313618659973],"min":[-0.9759000539779663,-0.9619923830032349,-0.9705690145492554],"type":"VEC3"},{"bufferView":3,"componentType":5126,"count":177,"max":[0.9398536682128906,0.9993062615394592,0.998566746711731,1],"min":[-0.9102516174316406,-0.9715325832366943,-0.9912171363830566,-1],"type":"VEC4"},{"bufferView":4,"componentType":5123,"count":177,"type":"VEC4"},{"bufferView":5,"componentType":5126,"count":177,"max":[1,0,0,0],"min":[1,0,0,0],"type":"VEC4"},{"bufferView":6,"componentType":5125,"count":912,"type":"SCALAR"},{"name":"Bind Matrices","bufferView":7,"componentType":5126,"count":4,"max":[1,-0,7.155849743867293E-07,0,6.981316857945785E-08,1,-0,0,0,2.617993857256806E-07,1,0,17.609128952026367,0,-45.62173080444336,1],"min":[1,-6.981306910347485E-08,0,0,-0,1,-2.617993857256806E-07,0,-7.155849743867293E-07,-0,1,0,-21.51460075378418,-1.3173088518669829E-05,-140.94711303710938,1],"type":"MAT4"}],"bufferViews":[{"buffer":0,"byteLength":2124,"byteOffset":9312,"target":34962},{"buffer":0,"byteLength":1416,"byteOffset":13560,"target":34962},{"buffer":0,"byteLength":2124,"byteOffset":11436,"target":34962},{"buffer":0,"byteLength":2832,"byteOffset":3648,"target":34962},{"buffer":0,"byteLength":1416,"byteOffset":14976,"target":34962},{"buffer":0,"byteLength":2832,"byteOffset":6480,"target":34962},{"buffer":0,"byteLength":3648,"target":34963},{"buffer":0,"byteLength":256,"byteOffset":16392}],"buffers":[{"byteLength":16648,"uri":"warlock_cape.bin"}],"images":[{"name":"warlock_cape_color_psd_88880d7d.vtex","uri":"warlock_cape_color_psd_88880d7d.png"},{"name":"warlock_cape_normal_psd_3cb92f87.vtex","uri":"warlock_cape_normal_psd_3cb92f87.png"},{"name":"warlock_cape_metalnessmask_tga_c3ffc9f7_orm_1901681528.png","uri":"warlock_cape_metalnessmask_tga_c3ffc9f7_orm_1901681528.png"}],"materials":[{"extras":{"baseColorTexture":{"index":0}},"name":"warlock_cape_color","alphaMode":"MASK","emissiveTexture":{"index":2},"normalTexture":{"index":1},"pbrMetallicRoughness":{"baseColorTexture":{"index":0},"metallicRoughnessTexture":{"index":2}}}],"meshes":[{"extras":{},"name":"models/heroes/warlock/warlock_cape.vmdl_c.warlock_cape_model","primitives":[{"attributes":{"POSITION":0,"TEXCOORD_0":1,"NORMAL":2,"TANGENT":3,"JOINTS_0":4,"WEIGHTS_0":5},"indices":6,"material":0}]}],"nodes":[{"name":"models/heroes/warlock/warlock_cape.vmdl_c","children":[1],"matrix":[3.027916E-09,0,0.025399996,0,0.025399996,3.027916E-09,0,0,0,0.025399996,3.027916E-09,0,0,0,0,1]},{"name":"root_0","children":[2,3,4],"translation":[-0.848145,-0,92]},{"name":"Fr_help6_0","rotation":[1.3089969E-07,1.8325957E-07,3.490656E-08,1],"translation":[22.362762,-1.8189894E-12,-46.37826]},{"name":"Head_1","rotation":[0,3.577925E-07,0,1],"translation":[-1.22383,0,48.947113]},{"name":"Bk_help7_0","rotation":[1.3089969E-07,1.8325957E-07,3.490656E-08,1],"translation":[-16.760967,-1.8189894E-12,-46.37826]},{"name":"models/heroes/warlock/warlock_cape.vmdl_c.warlock_cape_model","mesh":0,"skin":0}],"samplers":[{"magFilter":9729,"minFilter":9987}],"scenes":[{"name":"warlock_cape.vmdl_c","nodes":[0,5]}],"skins":[{"inverseBindMatrices":7,"joints":[1,2,3,4]}],"textures":[{"name":"warlock_cape_color_psd_88880d7d.vtex","sampler":0,"source":0},{"name":"warlock_cape_normal_psd_3cb92f87.vtex","sampler":0,"source":1},{"name":"warlock_cape_metalnessmask_tga_c3ffc9f7_orm_1901681528.png","sampler":0,"source":2}]}