{"asset":{"copyright":"","generator":"Source 2 Viewer 10.0.0.0 - https://valveresourceformat.github.io","version":"2.0"},"accessors":[{"bufferView":0,"componentType":5126,"count":684,"max":[29.942045211791992,35.60481262207031,96.78665161132812],"min":[-54.342247009277344,-35.60479736328125,-2.8808035850524902],"type":"VEC3"},{"bufferView":1,"componentType":5126,"count":684,"max":[0.9973754286766052,0.9974059462547302],"min":[0.0068666646257042885,0.0025635547935962677],"type":"VEC2"},{"bufferView":2,"componentType":5126,"count":684,"max":[0.998073399066925,0.9922779202461243,0.9860711693763733],"min":[-0.9998700022697449,-0.998566746711731,-0.9945054650306702],"type":"VEC3"},{"bufferView":3,"componentType":5126,"count":684,"max":[0.999462902545929,0.9997313618659973,0.9977096915245056,1],"min":[-0.9969363212585449,-0.9997313618659973,-0.9960377216339111,-1],"type":"VEC4"},{"bufferView":4,"componentType":5123,"count":684,"type":"VEC4"},{"bufferView":5,"componentType":5126,"count":684,"max":[1,0.501960813999176,0.2980392277240753,0.1921568661928177],"min":[0.33725491166114807,0,0,0],"type":"VEC4"},{"bufferView":6,"componentType":5125,"count":2838,"type":"SCALAR"},{"name":"Bind Matrices","bufferView":7,"componentType":5126,"count":22,"max":[1,0.6230961084365845,0.9924817681312561,0,0.4388357102870941,1,0.9999999403953552,0,0.9986294507980347,0.6450268626213074,1,0,105.3169174194336,75.65425872802734,32.052513122558594,1],"min":[-0.3022976219654083,-0.9864886403083801,-0.995712161064148,0,-0.8040464520454407,-1,-0.1638002246618271,0,-0.9986294507980347,-0.43697693943977356,-0.1985076516866684,0,-108.5831069946289,-37.18830871582031,-92.01688385009766,1],"type":"MAT4"}],"bufferViews":[{"buffer":0,"byteLength":8208,"byteOffset":33240,"target":34962},{"buffer":0,"byteLength":5472,"byteOffset":49656,"target":34962},{"buffer":0,"byteLength":8208,"byteOffset":41448,"target":34962},{"buffer":0,"byteLength":10944,"byteOffset":11352,"target":34962},{"buffer":0,"byteLength":5472,"byteOffset":55128,"target":34962},{"buffer":0,"byteLength":10944,"byteOffset":22296,"target":34962},{"buffer":0,"byteLength":11352,"target":34963},{"buffer":0,"byteLength":1408,"byteOffset":60600}],"buffers":[{"byteLength":62008,"uri":"warlock_robe.bin"}],"images":[{"name":"warlock_robe_color_psd_43dd7239.vtex","uri":"warlock_robe_color_psd_43dd7239.png"},{"name":"warlock_robe_normal_psd_1219e1d7.vtex","uri":"warlock_robe_normal_psd_1219e1d7.png"},{"name":"warlock_robe_metalnessmask_tga_24b7d878_orm_2509805870.png","uri":"warlock_robe_metalnessmask_tga_24b7d878_orm_2509805870.png"}],"materials":[{"extras":{"baseColorTexture":{"index":0}},"name":"warlock_robe_color","alphaMode":"MASK","emissiveTexture":{"index":2},"normalTexture":{"index":1},"pbrMetallicRoughness":{"baseColorTexture":{"index":0},"metallicRoughnessTexture":{"index":2}}}],"meshes":[{"extras":{},"name":"models/heroes/warlock/warlock_robe.vmdl_c.warlock_robe_model","primitives":[{"attributes":{"POSITION":0,"TEXCOORD_0":1,"NORMAL":2,"TANGENT":3,"JOINTS_0":4,"WEIGHTS_0":5},"indices":6,"material":0}]}],"nodes":[{"name":"models/heroes/warlock/warlock_robe.vmdl_c","children":[1],"matrix":[3.027916E-09,0,0.025399996,0,0.025399996,3.027916E-09,0,0,0,0.025399996,3.027916E-09,0,0,0,0,1]},{"name":"Root_0","children":[2,6,9,12,15,17,18,19,20,21,22],"translation":[-0.8482749,-0,92.016884]},{"name":"Spine_0","children":[3],"rotation":[9.887445E-09,-0.7390892,-9.887445E-09,0.6736076],"translation":[0.048274696,-1.1812773E-13,8.928551]},{"name":"Spine_1","children":[4,5],"rotation":[1.1355595E-14,-0.017953068,1.5694984E-09,0.9998388],"translation":[8.37339,3.644443E-07,6.67572E-06]},{"name":"thumb_2_R","rotation":[-0.13543631,0.42337593,-0.44258094,0.7788016],"translation":[-40.91323,-42.088528,-22.845139]},{"name":"bicep_L","rotation":[0.016445586,0.0044036238,0.9741729,0.22516066],"translation":[18.789612,21.75023,-3.2809057]},{"name":"Skirt_0_R","children":[7],"rotation":[-0.056957252,-0.77201664,-0.040388282,0.6317555],"translation":[14.224406,-12.902592,-4.6997375]},{"name":"Skirt_1_R","children":[8],"rotation":[-1.867783E-08,0.0741174,4.1091226E-08,0.99724954],"translation":[-42.51191,1.9073486E-06,1.1444092E-05]},{"name":"Skirt_2_R","rotation":[0.0005564936,-0.03990339,-0.013934514,0.9991062],"translation":[-20.943861,8.583069E-06,1.9073486E-05]},{"name":"Scarf5_0","children":[10],"rotation":[-1.6604341E-08,0.65024275,-1.4211494E-08,0.7597265],"translation":[20.992472,5.684342E-13,-4.4395447]},{"name":"Scarf5_1","children":[11],"rotation":[5.7457606E-16,0.01614342,-8.853204E-16,0.9998697],"translation":[19.725075,8.5187503E-07,4.9591064E-05]},{"name":"Scarf5_2","rotation":[8.729037E-16,-0.0049256072,-9.689309E-16,0.9999879],"translation":[22.213993,9.63704E-07,8.201599E-05]},{"name":"Back_flap_R0C0","children":[13],"rotation":[-0.417643,0.5705913,0.57059133,0.4176428],"translation":[-10.391484,-1.7401082E-06,-4.439575]},{"name":"Back_flap_R1C0","children":[14],"rotation":[-4.1440398E-08,2.6283416E-08,-0.0712053,0.9974617],"translation":[20.445244,1.9073486E-05,-1.5846438E-06]},{"name":"Back_flap_end","rotation":[-4.2091024E-09,-2.2111122E-08,7.4505753E-09,1],"translation":[22.348991,2.2888184E-05,3.4228124E-06]},{"name":"Skirt_0_L","children":[16],"rotation":[-0.040388077,0.6317555,0.056957033,0.77201664],"translation":[14.224406,12.9025955,-4.6997375]},{"name":"Skirt_1_L","rotation":[-3.7355643E-09,0.07411729,2.8950623E-08,0.99724954],"translation":[42.51191,4.7683716E-06,2.670288E-05]},{"name":"thigh_L","rotation":[-0.1754215,0.6546823,0.19030122,0.71021396],"translation":[6.556511E-07,6.999995,-3.500023]},{"name":"thigh_R","rotation":[-0.19030143,-0.71021396,-0.17542176,0.6546822],"translation":[1.6093254E-06,-7.0000067,-3.4999542]},{"name":"Back1_1_R","rotation":[0.75734496,2.2221691E-08,0.653015,-6.935801E-08],"translation":[-15.199393,-12.906815,-24.303848]},{"name":"Fr_help6_0","rotation":[-2.1855692E-08,-2.1855692E-08,4.776713E-16,1],"translation":[22.362762,0,-46.37826]},{"name":"Bk_help7_0","rotation":[-2.1855692E-08,-2.1855692E-08,4.776713E-16,1],"translation":[-16.760967,0,-46.37826]},{"name":"Bag_0","rotation":[6.189311E-08,7.213293E-09,-0.33004147,0.94396645],"translation":[-7.535052,-19.725319,-1.8585815]},{"name":"models/heroes/warlock/warlock_robe.vmdl_c.warlock_robe_model","mesh":0,"skin":0}],"samplers":[{"magFilter":9729,"minFilter":9987}],"scenes":[{"name":"warlock_robe.vmdl_c","nodes":[0,23]}],"skins":[{"inverseBindMatrices":7,"joints":[1,2,6,9,12,3,15,7,10,13,17,18,16,8,19,11,20,21,22,4,14,5]}],"textures":[{"name":"warlock_robe_color_psd_43dd7239.vtex","sampler":0,"source":0},{"name":"warlock_robe_normal_psd_1219e1d7.vtex","sampler":0,"source":1},{"name":"warlock_robe_metalnessmask_tga_24b7d878_orm_2509805870.png","sampler":0,"source":2}]}