{"asset":{"copyright":"","generator":"Source 2 Viewer 10.0.0.0 - https://valveresourceformat.github.io","version":"2.0"},"accessors":[{"bufferView":0,"componentType":5126,"count":329,"max":[25.265714645385742,44.301666259765625,151.33148193359375],"min":[-24.03546714782715,-44.301673889160156,95.80548858642578],"type":"VEC3"},{"bufferView":1,"componentType":5126,"count":329,"max":[0.9345988631248474,0.9940794110298157],"min":[0.028351696208119392,0.01428266242146492],"type":"VEC2"},{"bufferView":2,"componentType":5126,"count":329,"max":[0.9918366074562073,0.9722034335136414,0.9963046908378601],"min":[-0.993043065071106,-0.9734172821044922,-0.9974828362464905],"type":"VEC3"},{"bufferView":3,"componentType":5126,"count":329,"max":[0.9722034335136414,1,0.8908552527427673,1],"min":[-0.9722034335136414,-0.9998700022697449,-0.9773415327072144,-1],"type":"VEC4"},{"bufferView":4,"componentType":5123,"count":329,"type":"VEC4"},{"bufferView":5,"componentType":5126,"count":329,"max":[1,0.4431372582912445,0.30588236451148987,0],"min":[0.3607843220233917,0,0,0],"type":"VEC4"},{"bufferView":6,"componentType":5125,"count":1518,"type":"SCALAR"},{"name":"Bind Matrices","bufferView":7,"componentType":5126,"count":14,"max":[1,0.9771170020103455,0.9962362051010132,0,0.9857994914054871,1,0.08313437551259995,0,0.9992789626121521,0.5006034970283508,1,0,105.31692504882812,75.65426635742188,127.23165130615234,1],"min":[-0.1670415997505188,-0.9771170616149902,-0.9992789626121521,0,-8.575299403901226E-08,-0.8985666036605835,-7.160033010933375E-09,0,-0.8945081233978271,-0.43697696924209595,-0.9912797808647156,0,-133.97235107421875,-82.9867935180664,-140.9641571044922,1],"type":"MAT4"}],"bufferViews":[{"buffer":0,"byteLength":3948,"byteOffset":16600,"target":34962},{"buffer":0,"byteLength":2632,"byteOffset":24496,"target":34962},{"buffer":0,"byteLength":3948,"byteOffset":20548,"target":34962},{"buffer":0,"byteLength":5264,"byteOffset":6072,"target":34962},{"buffer":0,"byteLength":2632,"byteOffset":27128,"target":34962},{"buffer":0,"byteLength":5264,"byteOffset":11336,"target":34962},{"buffer":0,"byteLength":6072,"target":34963},{"buffer":0,"byteLength":896,"byteOffset":29760}],"buffers":[{"byteLength":30656,"uri":"warlock_shoulder.bin"}],"images":[{"name":"warlock_shoulder_color_psd_fe971a81.vtex","uri":"warlock_shoulder_color_psd_fe971a81.png"},{"name":"warlock_shoulder_normal_psd_43e0cb4.vtex","uri":"warlock_shoulder_normal_psd_43e0cb4.png"},{"name":"warlock_shoulder_metalnessmask_tga_788b5ae_orm_1249185832.png","uri":"warlock_shoulder_metalnessmask_tga_788b5ae_orm_1249185832.png"}],"materials":[{"extras":{"baseColorTexture":{"index":0}},"name":"warlock_shoulder_color","alphaMode":"MASK","emissiveTexture":{"index":2},"normalTexture":{"index":1},"pbrMetallicRoughness":{"baseColorTexture":{"index":0},"metallicRoughnessTexture":{"index":2}}}],"meshes":[{"extras":{},"name":"models/heroes/warlock/warlock_shoulder.vmdl_c.warlock_shoulder_model","primitives":[{"attributes":{"POSITION":0,"TEXCOORD_0":1,"NORMAL":2,"TANGENT":3,"JOINTS_0":4,"WEIGHTS_0":5},"indices":6,"material":0}]}],"nodes":[{"name":"models/heroes/warlock/warlock_shoulder.vmdl_c","children":[1],"matrix":[3.027916E-09,0,0.025399996,0,0.025399996,3.027916E-09,0,0,0,0.025399996,3.027916E-09,0,0,0,0,1]},{"name":"Root_0","children":[2,13,14],"translation":[-0.8482749,-0,92.016884]},{"name":"Spine_0","children":[3],"rotation":[9.887445E-09,-0.7390892,-9.887445E-09,0.6736076],"translation":[0.048274696,-1.1812773E-13,8.928551]},{"name":"Spine_1","children":[4],"rotation":[1.1355595E-14,-0.017953068,1.5694984E-09,0.9998388],"translation":[8.37339,3.644443E-07,6.67572E-06]},{"name":"Spine_2","children":[5,8,11],"rotation":[-1.1197156E-15,0.1299368,-1.135944E-08,0.9915223],"translation":[15.62085,6.771759E-07,0]},{"name":"clavicle_R","children":[6,7],"rotation":[0.5414752,0.45475778,-0.5391945,-0.45745954],"translation":[3.9915848,-4.8630385,-5.2290363]},{"name":"bicep_R","rotation":[-0.6086807,0.45503286,0.2460573,0.6015884],"translation":[-17.130495,-1.1444092E-05,-0.00010681152]},{"name":"Sh_pads2_0_R","rotation":[0.76258993,0.6435033,-0.048812587,0.044468533],"translation":[-18.590652,-3.2292004,-3.0792694]},{"name":"clavicle_L","children":[9,10],"rotation":[0.53919446,0.45745954,0.5414752,0.4547579],"translation":[3.991562,4.863032,-5.229046]},{"name":"bicep_L","rotation":[-0.6271546,0.46796927,0.28200823,0.55511546],"translation":[17.130463,4.7683716E-06,3.8146973E-05]},{"name":"Sh_pads2_0_L","rotation":[-0.048812672,-0.044468366,-0.7625899,0.64350337],"translation":[18.590601,3.2291756,3.0791168]},{"name":"Head_0","children":[12],"rotation":[-8.085818E-15,-0.047026847,4.111215E-09,0.9988936],"translation":[9.465103,4.101321E-07,1.7166138E-05]},{"name":"Head_1","rotation":[-6.297955E-08,0.6935534,-2.2685125E-13,0.7204052],"translation":[6.811493,2.9752664E-07,7.6293945E-06]},{"name":"Fr_help6_0","rotation":[-2.1855692E-08,-2.1855692E-08,4.776713E-16,1],"translation":[22.362762,0,-46.37826]},{"name":"Bk_help7_0","rotation":[-2.1855692E-08,-2.1855692E-08,4.776713E-16,1],"translation":[-16.760967,0,-46.37826]},{"name":"models/heroes/warlock/warlock_shoulder.vmdl_c.warlock_shoulder_model","mesh":0,"skin":0}],"samplers":[{"magFilter":9729,"minFilter":9987}],"scenes":[{"name":"warlock_shoulder.vmdl_c","nodes":[0,15]}],"skins":[{"inverseBindMatrices":7,"joints":[1,2,3,4,5,8,6,7,9,10,13,14,11,12]}],"textures":[{"name":"warlock_shoulder_color_psd_fe971a81.vtex","sampler":0,"source":0},{"name":"warlock_shoulder_normal_psd_43e0cb4.vtex","sampler":0,"source":1},{"name":"warlock_shoulder_metalnessmask_tga_788b5ae_orm_1249185832.png","sampler":0,"source":2}]}