{"asset":{"copyright":"","generator":"Source 2 Viewer 10.0.0.0 - https://valveresourceformat.github.io","version":"2.0"},"accessors":[{"bufferView":0,"componentType":5126,"count":527,"max":[118.59083557128906,172.2526092529297,202.1707763671875],"min":[-2.438520908355713,6.749268054962158,5.662883281707764],"type":"VEC3"},{"bufferView":1,"componentType":5126,"count":527,"max":[0.9975890517234802,0.9967344999313354],"min":[0.001739555038511753,0.006714072078466415],"type":"VEC2"},{"bufferView":2,"componentType":5126,"count":527,"max":[0.9993062615394592,0.9826616048812866,0.9004334807395935],"min":[-0.9910342693328857,-0.9974828362464905,-0.9818313717842102],"type":"VEC3"},{"bufferView":3,"componentType":5126,"count":527,"max":[0.996022641658783,0.9997480511665344,0.9890375733375549,1],"min":[-0.9934532642364502,-0.9974828362464905,-0.9923720955848694,-1],"type":"VEC4"},{"bufferView":4,"componentType":5123,"count":527,"type":"VEC4"},{"bufferView":5,"componentType":5126,"count":527,"max":[1,0.501960813999176,0,0],"min":[0.49803921580314636,0,0,0],"type":"VEC4"},{"bufferView":6,"componentType":5125,"count":1518,"type":"SCALAR"},{"name":"Bind Matrices","bufferView":7,"componentType":5126,"count":16,"max":[1,0.631619930267334,0.7849371433258057,0,2.0259798884109809E-13,1,0.4527076482772827,0,0,0.7617940902709961,1,0,221.26927185058594,66.87640380859375,36.00019836425781,1],"min":[-0.47115635871887207,-0.5369423627853394,-1,0,-0.6890183091163635,-1.0000001192092896,-0.4140239655971527,0,-1,-0.42129039764404297,-0.6069734692573547,0,-21.514617919921875,-8.707098007202148,-92,1],"type":"MAT4"}],"bufferViews":[{"buffer":0,"byteLength":6324,"byteOffset":16864,"target":34962},{"buffer":0,"byteLength":4216,"byteOffset":35584,"target":34962},{"buffer":0,"byteLength":6324,"byteOffset":23188,"target":34962},{"buffer":0,"byteLength":8432,"target":34962},{"buffer":0,"byteLength":4216,"byteOffset":39800,"target":34962},{"buffer":0,"byteLength":8432,"byteOffset":8432,"target":34962},{"buffer":0,"byteLength":6072,"byteOffset":29512,"target":34963},{"buffer":0,"byteLength":1024,"byteOffset":44016}],"buffers":[{"byteLength":45040,"uri":"warlock_staff.bin"}],"images":[{"name":"warlock_staff_color_psd_1f96509.vtex","uri":"warlock_staff_color_psd_1f96509.png"},{"name":"warlock_staff_normal_psd_b39f3a32.vtex","uri":"warlock_staff_normal_psd_b39f3a32.png"},{"name":"warlock_staff_detailmask_tga_6ec1caab_orm_882840201.png","uri":"warlock_staff_detailmask_tga_6ec1caab_orm_882840201.png"}],"materials":[{"extras":{"baseColorTexture":{"index":0}},"name":"warlock_staff_color","alphaMode":"MASK","emissiveTexture":{"index":2},"normalTexture":{"index":1},"pbrMetallicRoughness":{"baseColorTexture":{"index":0},"metallicRoughnessTexture":{"index":2}}}],"meshes":[{"extras":{},"name":"models/heroes/warlock/warlock_staff.vmdl_c.warlock_staff_model","primitives":[{"attributes":{"POSITION":0,"TEXCOORD_0":1,"NORMAL":2,"TANGENT":3,"JOINTS_0":4,"WEIGHTS_0":5},"indices":6,"material":0}]}],"nodes":[{"name":"models/heroes/warlock/warlock_staff.vmdl_c","children":[1],"matrix":[3.027916E-09,0,0.025399996,0,0.025399996,3.027916E-09,0,0,0,0.025399996,3.027916E-09,0,0,0,0,1]},{"name":"root_0","children":[2,15,16],"translation":[-0.848145,-0,92]},{"name":"staff","children":[3,7,11],"rotation":[-0.70710653,1.06770116E-07,0.707107,1.0677018E-07],"translation":[36.84841,66.87639,-13.271263]},{"name":"strip1_r0c0","children":[4],"rotation":[0.89773184,0.29418755,0.24397789,0.21910284],"translation":[-68.25355,-64.56607,-70.71539]},{"name":"strip1_R1C0","children":[5],"rotation":[-2.4597236E-07,0.028940594,-3.57778E-07,0.99958116],"translation":[7.183136,0.42092133,-0.15798187]},{"name":"strip1_R2C0","children":[6],"rotation":[-0.0002930914,-0.0076343743,0.03836441,0.9992346],"translation":[12.787567,1.479248,0.5494766]},{"name":"strip1_R3C0","rotation":[1.0430762E-07,1.4901094E-08,-2.1234051E-07,1],"translation":[17.024658,-4.196167E-05,0.00016021729]},{"name":"strip2_r0c0","children":[8],"rotation":[0.1754409,-0.18054494,0.39533046,0.88336736],"translation":[-73.787926,-88.80008,-24.08179]},{"name":"strip2_R1C0","children":[9],"rotation":[-9.33344E-08,0.06576829,-1.5680179E-07,0.997835],"translation":[7.4722595,-1.2769012,-0.38108444]},{"name":"strip2_R2C0","children":[10],"rotation":[-0.000801689,0.009185748,-0.08693509,0.99617136],"translation":[12.52034,-1.2921648,1.0226784]},{"name":"strip2_R3C0","rotation":[-1.3038459E-07,8.195603E-08,1.5273625E-07,1],"translation":[10.732605,0.66052246,0.9557247]},{"name":"strip_r0c0","children":[12],"rotation":[-0.261043,-0.34203652,0.23835455,0.8706634],"translation":[-101.85282,-47.044098,-34.40038]},{"name":"strip_R1C0","children":[13],"rotation":[-2.998354E-08,0.10977279,1.3867387E-07,0.99395674],"translation":[7.1954193,0.36725616,-0.63510895]},{"name":"strip_R2C0","children":[14],"rotation":[-0.0010503168,-0.05902482,0.017760534,0.99809796],"translation":[12.161163,0.28134918,1.6462784]},{"name":"strip_R3C0","rotation":[1.04307865E-07,-9.685729E-08,1.8253874E-07,1],"translation":[9.892319,4.5776367E-05,0.0001373291]},{"name":"Fr_help6_0","translation":[22.362762,0,-46.37826]},{"name":"Bk_help7_0","translation":[-16.760967,0,-46.37826]},{"name":"models/heroes/warlock/warlock_staff.vmdl_c.warlock_staff_model","mesh":0,"skin":0}],"samplers":[{"magFilter":9729,"minFilter":9987}],"scenes":[{"name":"warlock_staff.vmdl_c","nodes":[0,17]}],"skins":[{"inverseBindMatrices":7,"joints":[1,2,3,7,11,4,8,12,5,9,13,6,10,14,15,16]}],"textures":[{"name":"warlock_staff_color_psd_1f96509.vtex","sampler":0,"source":0},{"name":"warlock_staff_normal_psd_b39f3a32.vtex","sampler":0,"source":1},{"name":"warlock_staff_detailmask_tga_6ec1caab_orm_882840201.png","sampler":0,"source":2}]}