{"asset":{"copyright":"","generator":"Source 2 Viewer 10.0.0.0 - https://valveresourceformat.github.io","version":"2.0"},"accessors":[{"bufferView":0,"componentType":5126,"count":1717,"max":[30.916603088378906,-1.4810625314712524,77.86788177490234],"min":[-17.76250457763672,-49.14600372314453,9.271122932434082],"type":"VEC3"},{"bufferView":1,"componentType":5126,"count":1717,"max":[0.9956358671188354,0.9935300946235657],"min":[0.006561479531228542,0.005188146606087685],"type":"VEC2"},{"bufferView":2,"componentType":5126,"count":1717,"max":[0.998566746711731,0.9945054650306702,0.996022641658783],"min":[-0.9972413182258606,-0.996022641658783,-0.9972413182258606],"type":"VEC3"},{"bufferView":3,"componentType":5126,"count":1717,"max":[0.9997313618659973,0.9993062615394592,0.9945054650306702,1],"min":[-0.9934532642364502,-0.998566746711731,-0.9997313618659973,-1],"type":"VEC4"},{"bufferView":4,"componentType":5123,"count":1717,"type":"VEC4"},{"bufferView":5,"componentType":5126,"count":1717,"max":[1,0,0,0],"min":[1,0,0,0],"type":"VEC4"},{"bufferView":6,"componentType":5125,"count":5805,"type":"SCALAR"},{"name":"Bind Matrices","bufferView":7,"componentType":5126,"count":6,"max":[1,0.27911099791526794,1,0,4.4703256207867526E-08,1,3.168928230934398E-07,0,1,0.33821746706962585,1,0,17.60910987854004,7.258327484130859,-16.268529891967773,1],"min":[-7.085779998305952E-07,-0,-5.235987998730707E-08,0,-0.07767462730407715,-1.0000001192092896,-0.4315792918205261,0,-0.5036463737487793,-5.235987998730707E-08,5.805165415040392E-07,0,-70.40767669677734,-41.242733001708984,-92,1],"type":"MAT4"}],"bufferViews":[{"buffer":0,"byteLength":20604,"byteOffset":78164,"target":34962},{"buffer":0,"byteLength":13736,"byteOffset":119372,"target":34962},{"buffer":0,"byteLength":20604,"byteOffset":98768,"target":34962},{"buffer":0,"byteLength":27472,"target":34962},{"buffer":0,"byteLength":13736,"byteOffset":133108,"target":34962},{"buffer":0,"byteLength":27472,"byteOffset":27472,"target":34962},{"buffer":0,"byteLength":23220,"byteOffset":54944,"target":34963},{"buffer":0,"byteLength":384,"byteOffset":146844}],"buffers":[{"byteLength":147228,"uri":"warlock_lantern.bin"}],"images":[{"name":"warlock_lantern_color_psd_daa4cd52.vtex","uri":"warlock_lantern_color_psd_daa4cd52.png"},{"name":"warlock_lantern_normal_psd_83913056.vtex","uri":"warlock_lantern_normal_psd_83913056.png"},{"name":"warlock_lantern_metalnessmask_tga_6c8a915c_orm_272739026.png","uri":"warlock_lantern_metalnessmask_tga_6c8a915c_orm_272739026.png"}],"materials":[{"extras":{"baseColorTexture":{"index":0}},"name":"warlock_lantern_color","alphaMode":"MASK","emissiveTexture":{"index":2},"normalTexture":{"index":1},"pbrMetallicRoughness":{"baseColorTexture":{"index":0},"metallicRoughnessTexture":{"index":2}}}],"meshes":[{"extras":{},"name":"models/heroes/warlock/warlock_lantern.vmdl_c.warlock_lantern_model","primitives":[{"attributes":{"POSITION":0,"TEXCOORD_0":1,"NORMAL":2,"TANGENT":3,"JOINTS_0":4,"WEIGHTS_0":5},"indices":6,"material":0}]}],"nodes":[{"name":"models/heroes/warlock/warlock_lantern.vmdl_c","children":[1],"matrix":[3.027916E-09,0,0.025399996,0,0.025399996,3.027916E-09,0,0,0,0.025399996,3.027916E-09,0,0,0,0,1]},{"name":"root_0","children":[2,5,6],"translation":[-0.848145,-0,92]},{"name":"urn","children":[3],"rotation":[0.70710653,1.06770116E-07,0.707107,-1.0677018E-07],"translation":[22.325083,-41.242725,-21.592308]},{"name":"urn_mid","children":[4],"rotation":[7.450602E-09,-2.9802322E-08,-2.2351719E-08,1],"translation":[-9.7109375,-5.2720566,-5.208437]},{"name":"Inner_lantern4_0","rotation":[0.492115,0.211278,0.84094304,-0.077455476],"translation":[-20.043365,-10.8815365,-10.750231]},{"name":"Fr_help6_0","rotation":[-2.617994E-08,-2.617994E-08,-6.8538926E-16,1],"translation":[22.362762,0,-46.37826]},{"name":"Bk_help7_0","rotation":[-2.617994E-08,-2.617994E-08,-6.8538926E-16,1],"translation":[-16.760967,0,-46.37826]},{"name":"models/heroes/warlock/warlock_lantern.vmdl_c.warlock_lantern_model","mesh":0,"skin":0}],"samplers":[{"magFilter":9729,"minFilter":9987}],"scenes":[{"name":"warlock_lantern.vmdl_c","nodes":[0,7]}],"skins":[{"inverseBindMatrices":7,"joints":[1,2,3,5,6,4]}],"textures":[{"name":"warlock_lantern_color_psd_daa4cd52.vtex","sampler":0,"source":0},{"name":"warlock_lantern_normal_psd_83913056.vtex","sampler":0,"source":1},{"name":"warlock_lantern_metalnessmask_tga_6c8a915c_orm_272739026.png","sampler":0,"source":2}]}