{"asset":{"copyright":"","generator":"Source 2 Viewer 10.0.0.0 - https://valveresourceformat.github.io","version":"2.0"},"accessors":[{"bufferView":0,"componentType":5126,"count":503,"max":[28.240671157836914,52.931907653808594,105.25332641601562],"min":[-7.28708028793335,-53.05901336669922,71.92562866210938],"type":"VEC3"},{"bufferView":1,"componentType":5126,"count":503,"max":[0.9945066571235657,0.9694509506225586],"min":[0.020203253254294395,0.014893032610416412],"type":"VEC2"},{"bufferView":2,"componentType":5126,"count":503,"max":[0.9962862730026245,0.9941523671150208,0.9524636268615723],"min":[-0.9788878560066223,-0.9969363212585449,-0.980587899684906],"type":"VEC3"},{"bufferView":3,"componentType":5126,"count":503,"max":[0.9977096915245056,0.9960377216339111,0.9514358639717102,1],"min":[-0.9944270849227905,-0.9969363212585449,-0.998073399066925,-1],"type":"VEC4"},{"bufferView":4,"componentType":5123,"count":503,"type":"VEC4"},{"bufferView":5,"componentType":5126,"count":503,"max":[1,0.48627451062202454,0.09803921729326248,0],"min":[0.48235294222831726,0,0,0],"type":"VEC4"},{"bufferView":6,"componentType":5125,"count":2094,"type":"SCALAR"},{"name":"Bind Matrices","bufferView":7,"componentType":5126,"count":11,"max":[1,0.9984508156776428,0.9999998807907104,0,0.37987586855888367,1,0.9784644246101379,0,0.9999999403953552,0.5006033778190613,1,0,82.34479522705078,75.64683532714844,50.4973030090332,1],"min":[-0.6268096566200256,-0.9984509944915771,-1,0,-0.20464873313903809,-0.9999999403953552,-2.617993857256806E-07,0,-0.9999999403953552,-0.4369768500328064,-0.527595579624176,0,-82.45751953125,-82.97824096679688,-131.82041931152344,1],"type":"MAT4"}],"bufferViews":[{"buffer":0,"byteLength":6036,"byteOffset":24472,"target":34962},{"buffer":0,"byteLength":4024,"byteOffset":36544,"target":34962},{"buffer":0,"byteLength":6036,"byteOffset":30508,"target":34962},{"buffer":0,"byteLength":8048,"byteOffset":8376,"target":34962},{"buffer":0,"byteLength":4024,"byteOffset":40568,"target":34962},{"buffer":0,"byteLength":8048,"byteOffset":16424,"target":34962},{"buffer":0,"byteLength":8376,"target":34963},{"buffer":0,"byteLength":704,"byteOffset":44592}],"buffers":[{"byteLength":45296,"uri":"warlock_bracers.bin"}],"images":[{"name":"warlock_bracers_color_psd_e5768d52.vtex","uri":"warlock_bracers_color_psd_e5768d52.png"},{"name":"warlock_bracers_normal_psd_3bb72c92.vtex","uri":"warlock_bracers_normal_psd_3bb72c92.png"},{"name":"warlock_bracers_metalnessmask_tga_56ccf91e_orm_3377205032.png","uri":"warlock_bracers_metalnessmask_tga_56ccf91e_orm_3377205032.png"}],"materials":[{"extras":{"baseColorTexture":{"index":0}},"name":"warlock_bracers_color","alphaMode":"MASK","emissiveTexture":{"index":2},"normalTexture":{"index":1},"pbrMetallicRoughness":{"baseColorTexture":{"index":0},"metallicRoughnessTexture":{"index":2}}}],"meshes":[{"extras":{},"name":"models/heroes/warlock/warlock_bracers.vmdl_c.warlock_bracers_model","primitives":[{"attributes":{"POSITION":0,"TEXCOORD_0":1,"NORMAL":2,"TANGENT":3,"JOINTS_0":4,"WEIGHTS_0":5},"indices":6,"material":0}]}],"nodes":[{"name":"models/heroes/warlock/warlock_bracers.vmdl_c","children":[1],"matrix":[3.027916E-09,0,0.025399996,0,0.025399996,3.027916E-09,0,0,0,0.025399996,3.027916E-09,0,0,0,0,1]},{"name":"root_0","children":[2,5,8,9,10,11],"translation":[-0.848145,-0,92]},{"name":"elbow_L","children":[3],"rotation":[0.865484,0.12138898,-0.44746035,-0.18968773],"translation":[2.143578,32.16502,15.09198]},{"name":"wrist_L","children":[4],"rotation":[-0.048294332,-0.29558724,0.21996449,0.9283919],"translation":[33.970566,6.866455E-05,2.2888184E-05]},{"name":"mid_0_L","rotation":[0.7107593,0.05486099,0.09107806,0.6953533],"translation":[10.866043,-0.4660225,-1.0618725]},{"name":"elbow_R","children":[6],"rotation":[0.42333752,0.24660264,0.86752063,0.08590979],"translation":[1.8715482,-35.625816,12.174652]},{"name":"wrist_R","children":[7],"rotation":[-0.11362693,-0.31408465,0.23512188,0.9127746],"translation":[-31.377026,8.392334E-05,4.5776367E-05]},{"name":"mid_0_R","rotation":[0.7107595,0.054860935,0.09107793,0.6953532],"translation":[-10.865883,0.46617508,1.0619488]},{"name":"Fr_help6_0","rotation":[1.3089969E-07,1.8325957E-07,3.490656E-08,1],"translation":[22.362762,-1.8189894E-12,-46.37826]},{"name":"Bk_help7_0","rotation":[1.3089969E-07,1.8325957E-07,3.490656E-08,1],"translation":[-16.760967,-1.8189894E-12,-46.37826]},{"name":"sh_pads2_0_r","rotation":[8.726646E-09,1.7453292E-08,1.7453292E-08,1],"translation":[-2.874866,-22.662973,39.82042]},{"name":"sh_pads2_0_l","rotation":[-7.853983E-08,7.853981E-08,1.13446404E-07,1],"translation":[-2.874866,22.662973,39.82039]},{"name":"models/heroes/warlock/warlock_bracers.vmdl_c.warlock_bracers_model","mesh":0,"skin":0}],"samplers":[{"magFilter":9729,"minFilter":9987}],"scenes":[{"name":"warlock_bracers.vmdl_c","nodes":[0,12]}],"skins":[{"inverseBindMatrices":7,"joints":[1,2,5,3,6,8,9,4,7,10,11]}],"textures":[{"name":"warlock_bracers_color_psd_e5768d52.vtex","sampler":0,"source":0},{"name":"warlock_bracers_normal_psd_3bb72c92.vtex","sampler":0,"source":1},{"name":"warlock_bracers_metalnessmask_tga_56ccf91e_orm_3377205032.png","sampler":0,"source":2}]}